# xmcd CD database file
#
# Track frame offsets:
#	150
#	18499
#	42800
#	70931
#	100265
#	125870
#	149336
#	169409
#	182948
#	199632
#	225999
#	249742
#	263545
#
# Disc length: 3873 seconds
#
# Revision: 0
# Processed by: cddbd v1.5.2PL0 Copyright (c) Steve Scherf et al.
# Submitted via: CDex 1.51
#
DISCID=b90f1f0d
DTITLE=Reinhard Mey - Bunter Hund
DYEAR=2007
DGENRE=Blues
TTITLE0=Reinhard Mey Bunter Hund(14 - Reinhard Mey Bunter Hund(14)
TTITLE1=Reinhard Mey Danke, Liebe Gute Fee(15 - Reinhard Mey Danke, Liebe Gute Fee(15)
TTITLE2=Reinhard Mey Der Fischer Und Der Boss - Reinhard Mey Der Fischer Und Der Boss
TTITLE3=Reinhard Mey Drei Jahre Und Ein Tag - Reinhard Mey Drei Jahre Und Ein Tag
TTITLE4=Reinhard Mey Drei Kisten Kindheit - Reinhard Mey Drei Kisten Kindheit
TTITLE5=Reinhard Mey Friedrichstraﬂe - Reinhard Mey Friedrichstraﬂe
TTITLE6=Reinhard Mey Groﬂe Schwester - Reinhard Mey Groﬂe Schwester
TTITLE7=Reinhard Mey Ich Bin Verliebt In Meine Sekret‰rin - Reinhard Mey Ich Bin Verliebt In Meine Sekret‰rin
TTITLE8=Reinhard Mey Ich Brauche Einen Sommelier - Reinhard Mey Ich Brauche Einen Sommelier
TTITLE9=Reinhard Mey Kai - Reinhard Mey Kai
TTITLE10=Reinhard Mey Schraders Filmpalast - Reinhard Mey Schraders Filmpalast
TTITLE11=Reinhard Mey Sommer 52 - Reinhard Mey Sommer 52
TTITLE12=Reinhard Mey Wotan Und Wolf - Reinhard Mey Wotan Und Wolf
EXTD=YEAR: 2007
EXTT0=
EXTT1=
EXTT2=
EXTT3=
EXTT4=
EXTT5=
EXTT6=
EXTT7=
EXTT8=
EXTT9=
EXTT10=
EXTT11=
EXTT12=
PLAYORDER=
